<?xml version="1.0" encoding="utf-8"?>
<!-- Generator: Fusion 360, Shaper Origin Export Add-In, Version 1.6.2  -->
<svg xmlns="http://www.w3.org/2000/svg" xmlns:xlink="http://www.w3.org/1999/xlink" xmlns:shaper="http://www.shapertools.com/namespaces/shaper" shaper:fusionaddin="version:1.6.2" width="15.24cm" height="15.24cm" version="1.1" x="0cm" y="0cm" viewBox="0 0 15.24 15.24" enable-background="new 0 0 15.24 15.24" xml:space="preserve"><path d="M14.605,15.24 L-0,15.24 A0.3175,0.3175 90 0,1 -0.3175,14.9225 L-0.3175,0.3175 A0.3175,0.3175 180 0,1 -0,-0 L14.605,-0 A0.3175,0.3175 270 0,1 14.9225,0.3175 L14.9225,14.9225 A0.3175,0.3175 0 0,1 14.605,15.24z" transform="matrix(1,0,0,-1,0.3175,15.24)" fill="rgb(0,0,0)" shaper:cutDepth="0.003175" stroke-linecap="round" stroke-linejoin="round" /><path d="M6.0325,12.7 a1.27,1.27 0 1,1 2.54,0 a1.27,1.27 0 1,1 -2.54,0z" transform="matrix(1,0,0,-1,0.3175,15.24)" fill="rgb(255,255,255)" stroke="rgb(0,0,0)" stroke-width="0.0010cm" stroke-linecap="round" stroke-linejoin="round" shaper:cutDepth="0.003175" /><path d="M6.0325,7.62 a1.27,1.27 0 1,1 2.54,0 a1.27,1.27 0 1,1 -2.54,0z" transform="matrix(1,0,0,-1,0.3175,15.24)" fill="rgb(255,255,255)" stroke="rgb(0,0,0)" stroke-width="0.0010cm" stroke-linecap="round" stroke-linejoin="round" shaper:cutDepth="0.003175" /><path d="M6.0325,2.54 a1.27,1.27 0 1,1 2.54,0 a1.27,1.27 0 1,1 -2.54,0z" transform="matrix(1,0,0,-1,0.3175,15.24)" fill="rgb(255,255,255)" stroke="rgb(0,0,0)" stroke-width="0.0010cm" stroke-linecap="round" stroke-linejoin="round" shaper:cutDepth="0.003175" /><path d="M0.8131887,1.3340003 a0.2032,0.2032 0 1,1 0.4064,0 a0.2032,0.2032 0 1,1 -0.4064,0z" transform="matrix(1,0,0,-1,0.3175,15.24)" fill="rgb(255,255,255)" stroke="rgb(0,0,0)" stroke-width="0.0010cm" stroke-linecap="round" stroke-linejoin="round" shaper:cutDepth="0.003175" /><path d="M0.8131887,13.9063589 a0.2032,0.2032 0 1,1 0.4064,0 a0.2032,0.2032 0 1,1 -0.4064,0z" transform="matrix(1,0,0,-1,0.3175,15.24)" fill="rgb(255,255,255)" stroke="rgb(0,0,0)" stroke-width="0.0010cm" stroke-linecap="round" stroke-linejoin="round" shaper:cutDepth="0.003175" /><path d="M13.3855472,1.3340003 a0.2032,0.2032 0 1,1 0.4064,0 a0.2032,0.2032 0 1,1 -0.4064,0z" transform="matrix(1,0,0,-1,0.3175,15.24)" fill="rgb(255,255,255)" stroke="rgb(0,0,0)" stroke-width="0.0010cm" stroke-linecap="round" stroke-linejoin="round" shaper:cutDepth="0.003175" /><path d="M13.3855472,13.9063589 a0.2032,0.2032 0 1,1 0.4064,0 a0.2032,0.2032 0 1,1 -0.4064,0z" transform="matrix(1,0,0,-1,0.3175,15.24)" fill="rgb(255,255,255)" stroke="rgb(0,0,0)" stroke-width="0.0010cm" stroke-linecap="round" stroke-linejoin="round" shaper:cutDepth="0.003175" /></svg>