<?xml version="1.0" encoding="utf-8"?>
<!-- Generator: Fusion 360, Shaper Origin Export Add-In, Version 1.6.2  -->
<svg xmlns="http://www.w3.org/2000/svg" xmlns:xlink="http://www.w3.org/1999/xlink" xmlns:shaper="http://www.shapertools.com/namespaces/shaper" shaper:fusionaddin="version:1.6.2" width="31.6405088cm" height="31.6405088cm" version="1.1" x="0cm" y="0cm" viewBox="0 0 31.6405088 31.6405088" enable-background="new 0 0 31.6405088 31.6405088" xml:space="preserve"><path d="M16.8495216,-0.1859872 L20.0245216,-3.3609872 A0.635,0.635 225 0,1 20.9225472,-3.3609872 L23.8345216,-0.4490128 A0.635,0.635 315 0,1 23.8345216,0.4490128 L20.6595216,3.6240128 A0.635,0.635 225 0,0 20.4735344,4.0730256 L20.4735344,20.4735344 A0.635,0.635 180 0,0 20.6595216,20.9225472 L23.8345216,24.0975472 A0.635,0.635 315 0,1 23.8345216,24.9955728 L20.9225472,27.9075472 A0.635,0.635 45 0,1 20.0245216,27.9075472 L16.8495216,24.7325472 A0.635,0.635 315 0,0 16.4005088,24.54656 L0,24.54656 A0.635,0.635 270 0,0 -0.4490128,24.7325472 L-3.6240128,27.9075472 A0.635,0.635 45 0,1 -4.5220384,27.9075472 L-7.4340128,24.9955728 A0.635,0.635 135 0,1 -7.4340128,24.0975472 L-4.2590128,20.9225472 A0.635,0.635 45 0,0 -4.0730256,20.4735344 L-4.0730256,4.0730256 A0.635,0.635 0 0,0 -4.2590128,3.6240128 L-7.4340128,0.4490128 A0.635,0.635 135 0,1 -7.4340128,-0.4490128 L-4.5220384,-3.3609872 A0.635,0.635 225 0,1 -3.6240128,-3.3609872 L-0.4490128,-0.1859872 A0.635,0.635 135 0,0 -0,0 L16.4005088,-0 A0.635,0.635 90 0,0 16.8495216,-0.1859872z" transform="matrix(1,0,0,-1,7.62,28.0935344)" fill="rgb(0,0,0)" shaper:cutDepth="0.0047752" stroke-linecap="round" stroke-linejoin="round" /><path d="M5.3427544,8.4237971 a0.635,0.635 0 1,1 1.27,0 a0.635,0.635 0 1,1 -1.27,0z" transform="matrix(1,0,0,-1,7.62,28.0935344)" fill="rgb(255,255,255)" stroke="rgb(0,0,0)" stroke-width="0.0010cm" stroke-linecap="round" stroke-linejoin="round" shaper:cutDepth="0.0047752" /><path d="M3.1202544,12.27328 a0.635,0.635 0 1,1 1.27,0 a0.635,0.635 0 1,1 -1.27,0z" transform="matrix(1,0,0,-1,7.62,28.0935344)" fill="rgb(255,255,255)" stroke="rgb(0,0,0)" stroke-width="0.0010cm" stroke-linecap="round" stroke-linejoin="round" shaper:cutDepth="0.0047752" /><path d="M9.7877544,8.4237971 a0.635,0.635 0 1,1 1.27,0 a0.635,0.635 0 1,1 -1.27,0z" transform="matrix(1,0,0,-1,7.62,28.0935344)" fill="rgb(255,255,255)" stroke="rgb(0,0,0)" stroke-width="0.0010cm" stroke-linecap="round" stroke-linejoin="round" shaper:cutDepth="0.0047752" /><path d="M5.3427544,16.1227629 a0.635,0.635 0 1,1 1.27,0 a0.635,0.635 0 1,1 -1.27,0z" transform="matrix(1,0,0,-1,7.62,28.0935344)" fill="rgb(255,255,255)" stroke="rgb(0,0,0)" stroke-width="0.0010cm" stroke-linecap="round" stroke-linejoin="round" shaper:cutDepth="0.0047752" /><path d="M9.7877544,16.1227629 a0.635,0.635 0 1,1 1.27,0 a0.635,0.635 0 1,1 -1.27,0z" transform="matrix(1,0,0,-1,7.62,28.0935344)" fill="rgb(255,255,255)" stroke="rgb(0,0,0)" stroke-width="0.0010cm" stroke-linecap="round" stroke-linejoin="round" shaper:cutDepth="0.0047752" /><path d="M12.0102544,12.27328 a0.635,0.635 0 1,1 1.27,0 a0.635,0.635 0 1,1 -1.27,0z" transform="matrix(1,0,0,-1,7.62,28.0935344)" fill="rgb(255,255,255)" stroke="rgb(0,0,0)" stroke-width="0.0010cm" stroke-linecap="round" stroke-linejoin="round" shaper:cutDepth="0.0047752" /><path d="M6.9302544,12.27328 a1.27,1.27 0 1,1 2.54,0 a1.27,1.27 0 1,1 -2.54,0z" transform="matrix(1,0,0,-1,7.62,28.0935344)" fill="rgb(255,255,255)" stroke="rgb(0,0,0)" stroke-width="0.0010cm" stroke-linecap="round" stroke-linejoin="round" shaper:cutDepth="0.0047752" /><path d="M1.7108751,18.5594593 a0.2032,0.2032 0 1,1 0.4064,0 a0.2032,0.2032 0 1,1 -0.4064,0z" transform="matrix(1,0,0,-1,7.62,28.0935344)" fill="rgb(255,255,255)" stroke="rgb(0,0,0)" stroke-width="0.0010cm" stroke-linecap="round" stroke-linejoin="round" shaper:cutDepth="0.0047752" /><path d="M14.2832337,5.9871007 a0.2032,0.2032 0 1,1 0.4064,0 a0.2032,0.2032 0 1,1 -0.4064,0z" transform="matrix(1,0,0,-1,7.62,28.0935344)" fill="rgb(255,255,255)" stroke="rgb(0,0,0)" stroke-width="0.0010cm" stroke-linecap="round" stroke-linejoin="round" shaper:cutDepth="0.0047752" /><path d="M16.8870544,12.27328 a0.2032,0.2032 0 1,1 0.4064,0 a0.2032,0.2032 0 1,1 -0.4064,0z" transform="matrix(1,0,0,-1,7.62,28.0935344)" fill="rgb(255,255,255)" stroke="rgb(0,0,0)" stroke-width="0.0010cm" stroke-linecap="round" stroke-linejoin="round" shaper:cutDepth="0.0047752" /><path d="M1.7108751,5.9871007 a0.2032,0.2032 0 1,1 0.4064,0 a0.2032,0.2032 0 1,1 -0.4064,0z" transform="matrix(1,0,0,-1,7.62,28.0935344)" fill="rgb(255,255,255)" stroke="rgb(0,0,0)" stroke-width="0.0010cm" stroke-linecap="round" stroke-linejoin="round" shaper:cutDepth="0.0047752" /><path d="M7.9970544,21.16328 a0.2032,0.2032 0 1,1 0.4064,0 a0.2032,0.2032 0 1,1 -0.4064,0z" transform="matrix(1,0,0,-1,7.62,28.0935344)" fill="rgb(255,255,255)" stroke="rgb(0,0,0)" stroke-width="0.0010cm" stroke-linecap="round" stroke-linejoin="round" shaper:cutDepth="0.0047752" /><path d="M7.9970544,3.38328 a0.2032,0.2032 0 1,1 0.4064,0 a0.2032,0.2032 0 1,1 -0.4064,0z" transform="matrix(1,0,0,-1,7.62,28.0935344)" fill="rgb(255,255,255)" stroke="rgb(0,0,0)" stroke-width="0.0010cm" stroke-linecap="round" stroke-linejoin="round" shaper:cutDepth="0.0047752" /><path d="M14.2832337,18.5594593 a0.2032,0.2032 0 1,1 0.4064,0 a0.2032,0.2032 0 1,1 -0.4064,0z" transform="matrix(1,0,0,-1,7.62,28.0935344)" fill="rgb(255,255,255)" stroke="rgb(0,0,0)" stroke-width="0.0010cm" stroke-linecap="round" stroke-linejoin="round" shaper:cutDepth="0.0047752" /><path d="M-0.8929456,12.27328 a0.2032,0.2032 0 1,1 0.4064,0 a0.2032,0.2032 0 1,1 -0.4064,0z" transform="matrix(1,0,0,-1,7.62,28.0935344)" fill="rgb(255,255,255)" stroke="rgb(0,0,0)" stroke-width="0.0010cm" stroke-linecap="round" stroke-linejoin="round" shaper:cutDepth="0.0047752" /><path d="M-4.9112878,-0.5914964 a0.2159,0.2159 0 1,1 0.4318,0 a0.2159,0.2159 0 1,1 -0.4318,0z" transform="matrix(1,0,0,-1,7.62,28.0935344)" fill="rgb(255,255,255)" stroke="rgb(0,0,0)" stroke-width="0.0010cm" stroke-linecap="round" stroke-linejoin="round" shaper:cutDepth="0.0047752" /><path d="M19.5020924,-1.9694006 a0.2159,0.2159 0 1,1 0.4318,0 a0.2159,0.2159 0 1,1 -0.4318,0z" transform="matrix(1,0,0,-1,7.62,28.0935344)" fill="rgb(255,255,255)" stroke="rgb(0,0,0)" stroke-width="0.0010cm" stroke-linecap="round" stroke-linejoin="round" shaper:cutDepth="0.0047752" /><path d="M22.8833024,0.0088488 a0.2159,0.2159 0 1,1 0.4318,0 a0.2159,0.2159 0 1,1 -0.4318,0z" transform="matrix(1,0,0,-1,7.62,28.0935344)" fill="rgb(255,255,255)" stroke="rgb(0,0,0)" stroke-width="0.0010cm" stroke-linecap="round" stroke-linejoin="round" shaper:cutDepth="0.0047752" /><path d="M20.1614111,-2.656827 a0.2159,0.2159 0 1,1 0.4318,0 a0.2159,0.2159 0 1,1 -0.4318,0z" transform="matrix(1,0,0,-1,7.62,28.0935344)" fill="rgb(255,255,255)" stroke="rgb(0,0,0)" stroke-width="0.0010cm" stroke-linecap="round" stroke-linejoin="round" shaper:cutDepth="0.0047752" /><path d="M-6.2583263,0.755542 a0.2159,0.2159 0 1,1 0.4318,0 a0.2159,0.2159 0 1,1 -0.4318,0z" transform="matrix(1,0,0,-1,7.62,28.0935344)" fill="rgb(255,255,255)" stroke="rgb(0,0,0)" stroke-width="0.0010cm" stroke-linecap="round" stroke-linejoin="round" shaper:cutDepth="0.0047752" /><path d="M-4.2800768,-2.625668 a0.2159,0.2159 0 1,1 0.4318,0 a0.2159,0.2159 0 1,1 -0.4318,0z" transform="matrix(1,0,0,-1,7.62,28.0935344)" fill="rgb(255,255,255)" stroke="rgb(0,0,0)" stroke-width="0.0010cm" stroke-linecap="round" stroke-linejoin="round" shaper:cutDepth="0.0047752" /><path d="M20.8491308,-0.6223622 a0.2159,0.2159 0 1,1 0.4318,0 a0.2159,0.2159 0 1,1 -0.4318,0z" transform="matrix(1,0,0,-1,7.62,28.0935344)" fill="rgb(255,255,255)" stroke="rgb(0,0,0)" stroke-width="0.0010cm" stroke-linecap="round" stroke-linejoin="round" shaper:cutDepth="0.0047752" /><path d="M22.2239836,0.6962752 a0.2159,0.2159 0 1,1 0.4318,0 a0.2159,0.2159 0 1,1 -0.4318,0z" transform="matrix(1,0,0,-1,7.62,28.0935344)" fill="rgb(255,255,255)" stroke="rgb(0,0,0)" stroke-width="0.0010cm" stroke-linecap="round" stroke-linejoin="round" shaper:cutDepth="0.0047752" /><path d="M-3.5926504,-1.9663493 a0.2159,0.2159 0 1,1 0.4318,0 a0.2159,0.2159 0 1,1 -0.4318,0z" transform="matrix(1,0,0,-1,7.62,28.0935344)" fill="rgb(255,255,255)" stroke="rgb(0,0,0)" stroke-width="0.0010cm" stroke-linecap="round" stroke-linejoin="round" shaper:cutDepth="0.0047752" /><path d="M-6.9457527,0.0962232 a0.2159,0.2159 0 1,1 0.4318,0 a0.2159,0.2159 0 1,1 -0.4318,0z" transform="matrix(1,0,0,-1,7.62,28.0935344)" fill="rgb(255,255,255)" stroke="rgb(0,0,0)" stroke-width="0.0010cm" stroke-linecap="round" stroke-linejoin="round" shaper:cutDepth="0.0047752" /><path d="M-4.8804221,25.1689222 a0.2159,0.2159 0 1,1 0.4318,0 a0.2159,0.2159 0 1,1 -0.4318,0z" transform="matrix(1,0,0,-1,7.62,28.0935344)" fill="rgb(255,255,255)" stroke="rgb(0,0,0)" stroke-width="0.0010cm" stroke-linecap="round" stroke-linejoin="round" shaper:cutDepth="0.0047752" /><path d="M-4.1927024,27.203387 a0.2159,0.2159 0 1,1 0.4318,0 a0.2159,0.2159 0 1,1 -0.4318,0z" transform="matrix(1,0,0,-1,7.62,28.0935344)" fill="rgb(255,255,255)" stroke="rgb(0,0,0)" stroke-width="0.0010cm" stroke-linecap="round" stroke-linejoin="round" shaper:cutDepth="0.0047752" /><path d="M-6.2552749,23.8502848 a0.2159,0.2159 0 1,1 0.4318,0 a0.2159,0.2159 0 1,1 -0.4318,0z" transform="matrix(1,0,0,-1,7.62,28.0935344)" fill="rgb(255,255,255)" stroke="rgb(0,0,0)" stroke-width="0.0010cm" stroke-linecap="round" stroke-linejoin="round" shaper:cutDepth="0.0047752" /><path d="M-3.5333836,26.5159606 a0.2159,0.2159 0 1,1 0.4318,0 a0.2159,0.2159 0 1,1 -0.4318,0z" transform="matrix(1,0,0,-1,7.62,28.0935344)" fill="rgb(255,255,255)" stroke="rgb(0,0,0)" stroke-width="0.0010cm" stroke-linecap="round" stroke-linejoin="round" shaper:cutDepth="0.0047752" /><path d="M-6.9145936,24.5377112 a0.2159,0.2159 0 1,1 0.4318,0 a0.2159,0.2159 0 1,1 -0.4318,0z" transform="matrix(1,0,0,-1,7.62,28.0935344)" fill="rgb(255,255,255)" stroke="rgb(0,0,0)" stroke-width="0.0010cm" stroke-linecap="round" stroke-linejoin="round" shaper:cutDepth="0.0047752" /><path d="M20.8799966,25.1380564 a0.2159,0.2159 0 1,1 0.4318,0 a0.2159,0.2159 0 1,1 -0.4318,0z" transform="matrix(1,0,0,-1,7.62,28.0935344)" fill="rgb(255,255,255)" stroke="rgb(0,0,0)" stroke-width="0.0010cm" stroke-linecap="round" stroke-linejoin="round" shaper:cutDepth="0.0047752" /><path d="M22.9144614,24.4503368 a0.2159,0.2159 0 1,1 0.4318,0 a0.2159,0.2159 0 1,1 -0.4318,0z" transform="matrix(1,0,0,-1,7.62,28.0935344)" fill="rgb(255,255,255)" stroke="rgb(0,0,0)" stroke-width="0.0010cm" stroke-linecap="round" stroke-linejoin="round" shaper:cutDepth="0.0047752" /><path d="M20.2487856,27.172228 a0.2159,0.2159 0 1,1 0.4318,0 a0.2159,0.2159 0 1,1 -0.4318,0z" transform="matrix(1,0,0,-1,7.62,28.0935344)" fill="rgb(255,255,255)" stroke="rgb(0,0,0)" stroke-width="0.0010cm" stroke-linecap="round" stroke-linejoin="round" shaper:cutDepth="0.0047752" /><path d="M22.227035,23.791018 a0.2159,0.2159 0 1,1 0.4318,0 a0.2159,0.2159 0 1,1 -0.4318,0z" transform="matrix(1,0,0,-1,7.62,28.0935344)" fill="rgb(255,255,255)" stroke="rgb(0,0,0)" stroke-width="0.0010cm" stroke-linecap="round" stroke-linejoin="round" shaper:cutDepth="0.0047752" /><path d="M19.5613592,26.5129093 a0.2159,0.2159 0 1,1 0.4318,0 a0.2159,0.2159 0 1,1 -0.4318,0z" transform="matrix(1,0,0,-1,7.62,28.0935344)" fill="rgb(255,255,255)" stroke="rgb(0,0,0)" stroke-width="0.0010cm" stroke-linecap="round" stroke-linejoin="round" shaper:cutDepth="0.0047752" /></svg>